<?xml version="1.0" encoding="UTF-8"?>
<svg width="32px" height="32px" viewBox="0 0 32 32" version="1.1" xmlns="http://www.w3.org/2000/svg" xmlns:xlink="http://www.w3.org/1999/xlink">
    <title>logo-cakedefi-compact</title>
    <g id="Logos" stroke="none" stroke-width="1" fill="none" fill-rule="evenodd">
        <g id="logo-cakedefi-compact" fill="#5B10FF">
            <path d="M16.0008,0 C24.8228,0 32.0008,7.178 32.0008,16 C32.0008,24.823 24.8228,32 16.0008,32 C11.5458,32 7.5128,30.168 4.6098,27.221 C4.0288,26.63 4.2428,25.883 5.0238,25.61 L5.0238,25.61 L6.7778,24.996 C7.2978,24.814 8.0438,24.979 8.4718,25.327 C10.5318,26.995 13.1488,28 16.0008,28 C22.6178,28 28.0008,22.618 28.0008,16 C28.0008,9.383 22.6178,4 16.0008,4 C13.1488,4 10.5328,5.005 8.4718,6.674 C8.0438,7.021 7.2988,7.187 6.7778,7.004 L6.7778,7.004 L5.0248,6.391 C4.2428,6.118 4.0288,5.37 4.6098,4.78 C7.5128,1.831 11.5458,0 16.0008,0 Z M3.3,9.7866 L15.661,14.1126 C16.463,14.3926 17,15.1506 17,16.0006 C17,16.8496 16.463,17.6076 15.66,17.8886 L3.299,22.2136 C3.085,22.2886 2.862,22.3256 2.639,22.3256 C2.327,22.3256 2.016,22.2526 1.732,22.1076 C1.245,21.8606 0.882,21.4256 0.724,20.9026 C0.243,19.3096 0,17.6606 0,16.0006 C0,14.3396 0.243,12.6896 0.724,11.0966 C0.882,10.5746 1.245,10.1386 1.732,9.8916 C2.218,9.6446 2.785,9.6056 3.3,9.7866 Z" id="Combined-Shape"></path>
        </g>
    </g>
</svg>